solid Ground_Default_sldprt
   facet normal 1.000000e+000 0.000000e+000 0.000000e+000
      outer loop
         vertex 5.000000e+002 -1.000000e+001 5.000000e+002
         vertex 5.000000e+002 -1.000000e+001 -5.000000e+002
         vertex 5.000000e+002 0.000000e+000 5.000000e+002
      endloop
   endfacet
   facet normal 1.000000e+000 0.000000e+000 0.000000e+000
      outer loop
         vertex 5.000000e+002 0.000000e+000 5.000000e+002
         vertex 5.000000e+002 -1.000000e+001 -5.000000e+002
         vertex 5.000000e+002 0.000000e+000 -5.000000e+002
      endloop
   endfacet
   facet normal 0.000000e+000 0.000000e+000 1.000000e+000
      outer loop
         vertex -5.000000e+002 -1.000000e+001 5.000000e+002
         vertex 5.000000e+002 -1.000000e+001 5.000000e+002
         vertex -5.000000e+002 0.000000e+000 5.000000e+002
      endloop
   endfacet
   facet normal 0.000000e+000 0.000000e+000 1.000000e+000
      outer loop
         vertex -5.000000e+002 0.000000e+000 5.000000e+002
         vertex 5.000000e+002 -1.000000e+001 5.000000e+002
         vertex 5.000000e+002 0.000000e+000 5.000000e+002
      endloop
   endfacet
   facet normal -1.000000e+000 0.000000e+000 0.000000e+000
      outer loop
         vertex -5.000000e+002 -1.000000e+001 -5.000000e+002
         vertex -5.000000e+002 -1.000000e+001 5.000000e+002
         vertex -5.000000e+002 0.000000e+000 -5.000000e+002
      endloop
   endfacet
   facet normal -1.000000e+000 0.000000e+000 0.000000e+000
      outer loop
         vertex -5.000000e+002 0.000000e+000 -5.000000e+002
         vertex -5.000000e+002 -1.000000e+001 5.000000e+002
         vertex -5.000000e+002 0.000000e+000 5.000000e+002
      endloop
   endfacet
   facet normal 0.000000e+000 0.000000e+000 -1.000000e+000
      outer loop
         vertex 5.000000e+002 -1.000000e+001 -5.000000e+002
         vertex -5.000000e+002 -1.000000e+001 -5.000000e+002
         vertex 5.000000e+002 0.000000e+000 -5.000000e+002
      endloop
   endfacet
   facet normal 0.000000e+000 0.000000e+000 -1.000000e+000
      outer loop
         vertex 5.000000e+002 0.000000e+000 -5.000000e+002
         vertex -5.000000e+002 -1.000000e+001 -5.000000e+002
         vertex -5.000000e+002 0.000000e+000 -5.000000e+002
      endloop
   endfacet
   facet normal 0.000000e+000 -1.000000e+000 0.000000e+000
      outer loop
         vertex -5.000000e+002 -1.000000e+001 5.000000e+002
         vertex -5.000000e+002 -1.000000e+001 -5.000000e+002
         vertex 5.000000e+002 -1.000000e+001 5.000000e+002
      endloop
   endfacet
   facet normal 0.000000e+000 -1.000000e+000 0.000000e+000
      outer loop
         vertex 5.000000e+002 -1.000000e+001 5.000000e+002
         vertex -5.000000e+002 -1.000000e+001 -5.000000e+002
         vertex 5.000000e+002 -1.000000e+001 -5.000000e+002
      endloop
   endfacet
   facet normal 0.000000e+000 1.000000e+000 0.000000e+000
      outer loop
         vertex -5.000000e+002 0.000000e+000 -5.000000e+002
         vertex -5.000000e+002 0.000000e+000 5.000000e+002
         vertex 5.000000e+002 0.000000e+000 -5.000000e+002
      endloop
   endfacet
   facet normal 0.000000e+000 1.000000e+000 0.000000e+000
      outer loop
         vertex 5.000000e+002 0.000000e+000 -5.000000e+002
         vertex -5.000000e+002 0.000000e+000 5.000000e+002
         vertex 5.000000e+002 0.000000e+000 5.000000e+002
      endloop
   endfacet
endsolid